<?xml version="1.0" standalone="no"?>
<!DOCTYPE svg PUBLIC "-//W3C//DTD SVG 20010904//EN"
 "http://www.w3.org/TR/2001/REC-SVG-20010904/DTD/svg10.dtd">
<svg version="1.0" xmlns="http://www.w3.org/2000/svg"
 width="84.000000pt" height="84.000000pt" viewBox="0 0 84.000000 84.000000"
 preserveAspectRatio="xMidYMid meet">
<metadata>
Created by potrace 1.14, written by Peter Selinger 2001-2017
</metadata>
<g transform="translate(0.000000,84.000000) scale(0.100000,-0.100000)"
fill="#000000" stroke="none">
<path d="M415 720 c-11 -4 -28 -6 -37 -4 -10 1 -18 -2 -18 -7 0 -6 -4 -8 -9
-5 -14 9 -94 -35 -132 -73 -54 -55 -86 -133 -87 -213 -1 -38 3 -68 7 -68 4 0
8 -6 8 -14 0 -22 24 -76 34 -76 5 0 8 -6 7 -12 -2 -7 3 -12 10 -10 8 1 11 -1
8 -6 -10 -16 78 -82 108 -82 8 0 16 -5 18 -11 2 -6 16 -11 31 -11 15 0 27 -5
27 -11 0 -5 9 -2 20 8 11 10 20 14 20 10 0 -5 7 0 16 11 8 10 13 14 10 7 -7
-13 4 -22 34 -28 11 -2 20 1 20 7 0 5 7 8 15 4 8 -3 15 -1 15 4 0 6 6 10 14
10 21 0 106 69 106 86 0 8 4 13 9 9 5 -3 13 5 17 17 4 13 10 25 14 28 19 12
37 226 19 214 -5 -3 -9 3 -9 13 0 36 -90 153 -117 153 -7 0 -13 5 -13 10 0 6
-3 9 -7 8 -5 -1 -21 4 -37 11 -16 6 -36 13 -45 14 -9 1 -22 6 -28 10 -8 5 -13
3 -13 -5 0 -9 -3 -10 -8 -2 -4 7 -15 8 -27 4z"/>
</g>
</svg>
